<?xml version="1.0" encoding="utf-8"?>
<!-- Generator: Adobe Illustrator 16.0.0, SVG Export Plug-In . SVG Version: 6.00 Build 0)  -->
<!DOCTYPE svg PUBLIC "-//W3C//DTD SVG 1.1//EN" "http://www.w3.org/Graphics/SVG/1.1/DTD/svg11.dtd">
<svg viewBox="0 0 1379 704.95" xmlns="http://www.w3.org/2000/svg" alt="Use Konveyor tools to assess and rehost, replatform, or refactor existing applications" class="banner"><g transform="translate(-30.491 -26.464)"><linearGradient id="homepage-diagram_svg__a" x1="877.47" x2="1286.7" y1="373.63" y2="373.63" gradientUnits="userSpaceOnUse"><stop stop-color="#1f2937" stop-opacity="0" offset="0"></stop><stop stop-color="#1f2937" offset="0.95"></stop></linearGradient><path d="M1282.3 369.21a128084.6 128084.6 0 0 0-397.4-.004v9c131.65-.204 265.33-.203 397.38.004h.01a4.5 4.5 0 0 0 .007-9z" fill="url(#homepage-diagram_svg__a)"></path><linearGradient id="homepage-diagram_svg__b" x1="801.59" x2="1286.7" y1="156.04" y2="156.04" gradientUnits="userSpaceOnUse"><stop stop-color="#1f2937" stop-opacity="0" offset="0"></stop><stop stop-color="#1f2937" offset="0.95"></stop></linearGradient><path d="M1282.2 224.04c-39.829-.01-79.783-.018-119.79-.023V95.537c0-3.995 2.417-7.5 5.173-7.5h114.62a4.5 4.5 0 0 0 0-9h-114.62c-7.814 0-14.173 7.402-14.173 16.5v128.48c-115.97-.013-232.35-.006-347.41.024-.893 0-1.721.263-2.417.714 3.928 1.75 7.11 4.821 10.41 7.609.241.204.447.433.631.676 113.66-.028 228.56-.035 343.06-.021.078.004.151.023.229.023s.151-.019.229-.023c41.434.005 82.814.013 124.06.023h.001a4.5 4.5 0 0 0 .002-9.002z" fill="url(#homepage-diagram_svg__b)"></path><linearGradient id="homepage-diagram_svg__c" x1="800.11" x2="1286.7" y1="518.74" y2="518.74" gradientUnits="userSpaceOnUse"><stop stop-color="#1f2937" stop-opacity="0" offset="0"></stop><stop stop-color="#1f2937" offset="0.95"></stop></linearGradient><path d="M1282.3 514.38c-155.15-.369-312.38-.374-467.54-.021-3.857 3.201-8.482 5.411-12.664 8.221.726.502 1.604.8 2.554.8h.011c158.42-.378 319.11-.378 477.62 0h.011a4.5 4.5 0 0 0 .01-9z" fill="url(#homepage-diagram_svg__c)"></path><path d="M680.68 522.34h-63.62c26.656 16.461 58.036 25.976 91.6 25.976 96.411 0 174.85-78.436 174.85-174.85s-78.437-174.85-174.85-174.85c-33.564 0-64.944 9.515-91.601 25.977h63.62v297.74z" fill="none"></path><linearGradient id="homepage-diagram_svg__d" x1="33.17" x2="680.68" y1="373.47" y2="373.47" gradientUnits="userSpaceOnUse"><stop stop-color="#1f2937" stop-opacity="0" offset="0"></stop><stop stop-color="#1f2937" offset="0.95"></stop></linearGradient><path d="M530.81 373.47c0-62.226 32.13-117.08 80.664-148.87H33.164v297.74h578.31c-48.534-31.79-80.664-86.645-80.664-148.87z" fill="url(#homepage-diagram_svg__d)"></path><linearGradient id="homepage-diagram_svg__e" x1="748.99" x2="748.99" y1="551.32" y2="195.62" gradientUnits="userSpaceOnUse"><stop stop-color="#1f2937" offset="0"></stop><stop stop-color="#1f2937" offset="1"></stop></linearGradient><path d="M708.66 195.62c-35.84 0-69.231 10.666-97.184 28.977h5.584c26.656-16.462 58.036-25.977 91.601-25.977 96.411 0 174.85 78.437 174.85 174.85s-78.437 174.85-174.85 174.85c-33.564 0-64.944-9.515-91.6-25.976h-5.584c27.954 18.31 61.344 28.976 97.184 28.976 98.065 0 177.85-79.782 177.85-177.85-.001-98.066-79.783-177.85-177.85-177.85z" fill="url(#homepage-diagram_svg__e)"></path><path d="M533.81 373.47c0-62.847 33.336-118.05 83.248-148.87h-5.584c-48.534 31.791-80.664 86.645-80.664 148.87s32.13 117.08 80.664 148.87h5.584c-49.913-30.823-83.248-86.024-83.248-148.87z" fill="url(#homepage-diagram_svg__d)"></path><linearGradient id="homepage-diagram_svg__f" x1="573.94" x2="573.94" y1="551.32" y2="195.62" gradientUnits="userSpaceOnUse"><stop stop-color="#1f2937" offset="0"></stop><stop stop-color="#1f2937" offset="1"></stop></linearGradient><path d="M533.81 373.47c0-62.847 33.336-118.05 83.248-148.87h-5.584c-48.534 31.791-80.664 86.645-80.664 148.87s32.13 117.08 80.664 148.87h5.584c-49.913-30.823-83.248-86.024-83.248-148.87z" fill="url(#homepage-diagram_svg__f)"></path><g fill="#fff"><path d="M1334.483 560.08h-3.84v9.546h-3.669v-9.547h-3.859v-3.005h11.368zM1338.094 557.075h3.35l4.629 12.552h-3.727l-.808-2.458h-3.558l-.79 2.458h-3.745zm2.86 7.796-1.185-3.89-1.242 3.89zM1345.935 563.249c0-.766.15-1.521.451-2.263a6.244 6.244 0 0 1 1.355-1.998 6.883 6.883 0 0 1 2.145-1.433c.84-.365 1.8-.547 2.88-.547 1.292 0 2.409.253 3.35.76.953.495 1.661 1.155 2.126 1.98l-2.804 1.874a2.129 2.129 0 0 0-.508-.76c-.201-.2-.427-.36-.678-.476-.25-.119-.515-.201-.79-.248a4.344 4.344 0 0 0-.772-.07c-.527 0-.985.1-1.374.3-.377.19-.69.442-.941.76a3.34 3.34 0 0 0-.546 1.06c-.112.39-.169.779-.169 1.167 0 .437.07.855.207 1.256a3.2 3.2 0 0 0 .603 1.06c.263.306.583.554.96.742a3.11 3.11 0 0 0 1.298.266c.251 0 .508-.023.772-.07.263-.06.515-.148.753-.266.25-.13.47-.29.658-.477.202-.201.358-.442.47-.725l2.993 1.68c-.201.459-.508.872-.923 1.237a5.583 5.583 0 0 1-1.392.92 7.523 7.523 0 0 1-1.675.566c-.59.13-1.167.195-1.731.195-.991 0-1.9-.183-2.729-.548a7.154 7.154 0 0 1-2.126-1.485 6.76 6.76 0 0 1-1.374-2.086 6.1 6.1 0 0 1-.49-2.371zM1359.656 569.626v-12.552h3.67v4.773l4.065-4.773h4.14l-4.855 5.622 5.195 6.931h-4.216l-3.313-4.614-1.016.99v3.624h-3.67zM1372.656 569.626v-12.552h3.67v9.547h6.06v3.005zM1393.186 566.622v3.005h-9.522v-12.552h9.353v3.005h-5.683v1.768h4.855v2.794h-4.855v1.98z"></path></g><g fill="#ac9565"><path d="m1366.964 467.539 3.319 1.916v26.1l-3.32-1.916zM1348.81 467.539l-3.32 1.916v27.268l3.32-1.915zM1357.977 512.162a4.856 4.856 0 0 0-4.853 4.677v8.355c0 .904.172 1.287.737 1.851l5.596 5.598c1.25 1.346 1.306 3.541-.088 4.761v.001c-1.4 1.226-3.436 1.34-4.78.07-.01-.007-2.362-2.366-4.001-4.008-.517-.517-1.56-.26-1.56.837 0 1.248 1.376 1.167 1.376 1.75 0 4.252 3.323 7.265 7.575 7.265a7.7 7.7 0 0 0 4.838-13.69c0-5.069.018-12.72.018-12.753a4.858 4.858 0 0 0-4.856-4.714z"></path></g><path d="M1373.046 494.108c0-8.304-6.731-15.036-15.034-15.036-8.304 0-15.035 6.732-15.035 15.036 0 1.494.224 2.978.661 4.406l-.052.017 7.053 21.182a7.517 7.517 0 0 0 14.654.405l7.189-21.586-.09-.03c.433-1.426.655-2.906.655-4.394zm-12.935 25.38c-.134.127-2.794.764-2.97.712s-2.057-2.038-2.1-2.215.735-2.802.869-2.928c.132-.126 2.794-.763 2.969-.712.176.052 2.058 2.038 2.1 2.216.043.179-.736 2.801-.868 2.928zm2.1-20.949c-.266.253-5.587 1.527-5.938 1.423s-4.116-4.076-4.201-4.432c-.085-.356 1.471-5.602 1.737-5.854.266-.252 5.587-1.526 5.939-1.422s4.115 4.076 4.2 4.431-1.47 5.602-1.737 5.854z" fill="#fff"></path><g fill="#fff"><path d="M1331.085 547.769a3.39 3.39 0 0 0-3.377 3.378c0 1.856 1.52 3.377 3.377 3.377s3.378-1.521 3.378-3.377-1.522-3.378-3.378-3.378zm0 1.547c1.02 0 1.83.81 1.83 1.83s-.81 1.831-1.83 1.831-1.83-.81-1.83-1.83.81-1.831 1.83-1.831z"></path><path d="M1323.188 554.012v-5.753h1.58v2.188l1.75-2.188h1.783l-2.09 2.577 2.236 3.176h-1.815l-1.426-2.114-.438.453v1.661h-1.58zM1336.543 551.18v2.828h-1.58v-5.753h1.231l2.31 2.925v-2.925h1.58v5.753h-1.256zM1342.187 548.265l1.126 3.768 1.11-3.768h1.661l-2.115 5.753h-1.312l-2.14-5.753zM1350.621 552.648v1.377h-4.1v-5.753h4.027v1.378h-2.447v.81h2.09v1.28h-2.09v.908zM1352.523 548.265l1.03 2.488 1.053-2.488h1.717l-1.985 3.849v1.904h-1.572v-1.92l-1.953-3.833zM1362.984 554.012v-5.753h2.641c.281 0 .54.06.778.179.238.113.44.264.608.453.173.184.308.397.405.64.097.238.146.478.146.721 0 .335-.073.649-.219.94a1.92 1.92 0 0 1-.608.705l1.216 2.115h-1.783l-1.013-1.766h-.591v1.766zm1.58-3.144h.997c.097 0 .186-.054.267-.162.086-.108.13-.259.13-.454 0-.2-.05-.35-.146-.453-.098-.108-.195-.162-.292-.162h-.956v1.231zM1359.18 547.769a3.39 3.39 0 0 0-3.378 3.378c0 1.856 1.522 3.377 3.378 3.377s3.378-1.521 3.378-3.377-1.522-3.378-3.378-3.378zm0 1.547c1.02 0 1.83.81 1.83 1.83s-.81 1.831-1.83 1.831-1.83-.81-1.83-1.83.81-1.831 1.83-1.831z"></path></g><g fill="#fff"><path d="M1315.51 414.146v-5.645l-1.912 3.97h-1.672l-1.911-3.97v5.645h-3.134v-10.717h3.423l2.458 5.041 2.474-5.04h3.406v10.716zM1325.723 414.243c-.867 0-1.654-.156-2.361-.468s-1.312-.72-1.816-1.222a5.633 5.633 0 0 1-1.173-1.75 5.113 5.113 0 0 1-.418-2.024c0-.704.145-1.384.433-2.037a5.36 5.36 0 0 1 1.206-1.72 5.891 5.891 0 0 1 1.847-1.193 5.997 5.997 0 0 1 2.346-.452c.868 0 1.655.156 2.362.468s1.312.724 1.816 1.238c.503.512.89 1.097 1.156 1.75.279.654.418 1.323.418 2.007a4.97 4.97 0 0 1-.434 2.038 5.602 5.602 0 0 1-1.205 1.72c-.514.493-1.13.89-1.848 1.192a5.87 5.87 0 0 1-2.329.453zm-2.586-5.434c0 .363.054.715.16 1.057.108.332.268.629.483.89s.482.474.803.634c.333.161.724.242 1.173.242s.841-.08 1.173-.242c.333-.17.6-.387.804-.649a2.62 2.62 0 0 0 .466-.92 3.461 3.461 0 0 0 0-2.085 2.395 2.395 0 0 0-.498-.89 2.226 2.226 0 0 0-.819-.619c-.32-.16-.702-.241-1.141-.241-.45 0-.84.08-1.173.241-.322.161-.59.377-.804.65a2.67 2.67 0 0 0-.482.905 3.658 3.658 0 0 0-.145 1.027zM1334.596 403.436l2.234 7.018 2.201-7.018h3.295l-4.194 10.717h-2.603l-4.242-10.717zM1351.413 411.578v2.565h-8.13v-10.717h7.985v2.566h-4.852v1.509h4.146v2.385h-4.146v1.69h4.997zM1352.857 414.873c0-.729.058-1.38.173-1.954s.314-1.093.595-1.559c.28-.48.66-.922 1.139-1.325s1.08-.8 1.807-1.187c.776-.403 1.42-.736 1.932-1 .528-.264.94-.496 1.238-.698.313-.202.536-.38.668-.535a.925.925 0 0 0 .198-.581c0-.435-.165-.784-.495-1.047s-.8-.396-1.411-.396c-.694 0-1.296.163-1.808.489a7.072 7.072 0 0 0-1.486 1.233l-2.525-2.745c.264-.28.619-.55 1.065-.814s.949-.497 1.51-.698a10.39 10.39 0 0 1 1.832-.512 11.653 11.653 0 0 1 2.105-.186c1.783 0 3.145.364 4.086 1.093.957.73 1.436 1.714 1.436 2.954 0 .512-.091.97-.273 1.373a3.963 3.963 0 0 1-.668 1.093c-.28.31-.595.59-.941.838-.347.232-.702.45-1.065.65-.248.14-.545.303-.891.49s-.694.38-1.04.581c-.33.186-.644.38-.941.581-.28.187-.495.357-.644.512h6.735v3.35zM1367.198 414.146v-10.717h3.133v4.076l3.47-4.076h3.535l-4.145 4.8 4.434 5.917h-3.598l-2.828-3.94-.868.845v3.094zM1383.292 411.626c.364 0 .675-.076.932-.227s.466-.347.626-.588c.161-.252.279-.538.354-.86.075-.323.112-.66.112-1.012v-5.509h3.134v5.51c0 .744-.102 1.443-.306 2.098-.203.643-.52 1.202-.948 1.675s-.97.846-1.623 1.117c-.642.271-1.403.408-2.28.407-.91 0-1.693-.14-2.347-.422-.643-.292-1.173-.68-1.59-1.163s-.724-1.042-.917-1.675a7.06 7.06 0 0 1-.289-2.038v-5.509h3.134v5.51c0 .351.037.693.112 1.026.075.321.193.608.354.86.16.242.364.438.61.589.258.14.568.211.932.211zM1399.903 411.403c0 .483-.108.9-.321 1.253-.215.342-.509.624-.884.845s-.814.388-1.318.499c-.493.1-1.017.15-1.574.15h-5.608v-10.716h6.62c.396 0 .755.08 1.076.241s.594.373.82.634c.224.252.395.544.513.875.128.322.193.655.193.997 0 .503-.14.986-.418 1.449-.267.452-.675.795-1.22 1.026.653.182 1.167.498 1.542.951.386.443.579 1.042.579 1.796zm-3.182-.603a.952.952 0 0 0-.225-.65.716.716 0 0 0-.579-.27h-2.586v1.795h2.474a.936.936 0 0 0 .642-.226c.183-.152.274-.368.274-.649zm-3.39-4.86v1.644h2.137c.215 0 .408-.055.58-.165.182-.11.273-.333.273-.664 0-.292-.076-.499-.225-.619a.78.78 0 0 0-.53-.196h-2.234zM1409.394 411.578v2.565h-8.13v-10.717h7.986v2.566h-4.852v1.509h4.145v2.385h-4.145v1.69h4.996z"></path></g><path d="M1363.94 357.02c.319.13.47.495.339.813l-9.256 22.46a.622.622 0 0 1-.813.339l-22.46-9.256a.62.62 0 0 1-.337-.813l9.256-22.46a.62.62 0 0 1 .812-.34zm-9.682-.264-5.721-2.358a1.002 1.002 0 0 0-1.313.547 1.002 1.002 0 0 0 .547 1.313l5.721 2.358a1.003 1.003 0 0 0 1.314-.546 1.003 1.003 0 0 0-.548-1.314z" fill="#ac9565"></path><g fill="none" stroke="#fff" stroke-linecap="round" stroke-linejoin="round" stroke-miterlimit="11.339"><path d="m1391.94 332.82-14.039 5.583c-1.214.488-2.28 1.643-2.989 3.304l-18.271 43.613-16.908-6.795" stroke-width="2.543"></path><path d="M1374.04 383.73a5.24 5.24 0 1 1-10.475.373 5.24 5.24 0 1 1 10.475-.373z" stroke-width="3.5"></path><path d="m1391.94 332.82-10.383 4.129" stroke-width="3.676"></path></g><path d="m1366.44 365.07 2.638 10.332a13.35 13.35 0 0 0-2.258.152l-1.824-7.57zM1356.64 386.59l4.242-.006a13.157 13.157 0 0 1-.414-2.225l-2.938.043z" fill="#fff"></path><g fill="#fff"><path d="M1314.822 393.766a3.39 3.39 0 0 0-3.377 3.378c0 1.856 1.521 3.377 3.377 3.377s3.378-1.521 3.378-3.377-1.521-3.378-3.378-3.378zm0 1.547c1.02 0 1.831.81 1.831 1.83s-.81 1.831-1.83 1.831-1.831-.81-1.831-1.83.81-1.831 1.83-1.831z"></path><path d="M1306.905 400.03v-5.753h1.58v2.188l1.75-2.188h1.783l-2.091 2.576 2.236 3.177h-1.815l-1.426-2.115-.437.454v1.66zM1320.28 397.197v2.828h-1.58v-5.753h1.232l2.309 2.925v-2.925h1.58v5.753h-1.256zM1325.903 394.283l1.127 3.767 1.11-3.767h1.66l-2.114 5.753h-1.313l-2.139-5.753zM1334.359 398.645v1.377h-4.1v-5.753h4.026v1.378h-2.447v.81h2.09v1.28h-2.09v.908zM1336.26 394.283l1.03 2.487 1.053-2.487h1.718l-1.986 3.849v1.904h-1.572v-1.92l-1.952-3.833h1.71zM1346.721 400.03v-5.753h2.642c.28 0 .54.06.778.178.237.113.44.265.607.454.173.183.308.397.405.64.097.238.146.478.146.72 0 .336-.073.65-.218.94a1.92 1.92 0 0 1-.608.706l1.215 2.115h-1.783l-1.012-1.767h-.592v1.767zm1.58-3.144h.997c.097 0 .186-.054.267-.162.087-.108.13-.26.13-.454 0-.2-.049-.351-.146-.454-.097-.108-.194-.162-.292-.162h-.956zM1342.897 393.766a3.39 3.39 0 0 0-3.378 3.378c0 1.856 1.521 3.377 3.378 3.377s3.377-1.521 3.377-3.377-1.521-3.378-3.377-3.378zm0 1.547c1.02 0 1.83.81 1.83 1.83a1.82 1.82 0 0 1-1.83 1.831 1.82 1.82 0 0 1-1.831-1.83c0-1.02.81-1.831 1.83-1.831z"></path></g><g fill="#fff"><path d="M1313.875 278.05v-12.553h9.166v3.006h-5.495v2.086h4.478v2.793h-4.478v4.668zM1330.382 278.157c-1.016 0-1.938-.184-2.766-.548s-1.537-.842-2.126-1.433a6.606 6.606 0 0 1-1.374-2.05 5.99 5.99 0 0 1-.49-2.37c0-.824.17-1.62.51-2.386a6.273 6.273 0 0 1 1.41-2.015 6.898 6.898 0 0 1 2.165-1.397c.84-.354 1.757-.53 2.747-.53 1.017 0 1.939.183 2.767.547s1.538.85 2.127 1.45c.59.601 1.04 1.285 1.354 2.051a5.95 5.95 0 0 1 .49 2.351c0 .825-.17 1.621-.51 2.388a6.564 6.564 0 0 1-1.41 2.016 7.026 7.026 0 0 1-2.165 1.396c-.829.353-1.738.53-2.729.53zm-3.03-6.365c0 .424.063.836.188 1.237.126.389.313.737.564 1.043s.564.555.941.743c.389.189.847.283 1.374.283s.986-.094 1.374-.283c.39-.201.703-.454.941-.76.251-.318.434-.678.546-1.079a4.046 4.046 0 0 0 0-2.44c-.126-.4-.32-.749-.584-1.043a2.623 2.623 0 0 0-.96-.725c-.376-.19-.822-.283-1.335-.283-.528 0-.986.094-1.375.283-.376.189-.69.442-.94.76-.251.306-.44.66-.565 1.06a4.33 4.33 0 0 0-.169 1.204zM1338.739 278.05v-12.553h6.135c.652 0 1.255.13 1.807.39a4.364 4.364 0 0 1 1.411.99c.402.4.715.866.941 1.396.226.519.339 1.043.339 1.574a4.256 4.256 0 0 1-1.92 3.59l2.822 4.614h-4.14l-2.352-3.855h-1.374v3.855h-3.67zm3.67-6.86h2.315c.226 0 .433-.119.62-.354.202-.236.302-.566.302-.99 0-.437-.112-.766-.338-.991-.226-.236-.452-.354-.678-.354h-2.22v2.689zM1351.429 278.05v-12.553h3.67v4.774l4.064-4.774h4.14l-4.855 5.623 5.195 6.93h-4.215l-3.312-4.614-1.016.991v3.624h-3.671zM1364.428 278.05v-12.553h3.67v9.547h6.06v3.006zM1375.467 278.05v-12.553h3.67v12.553zM1381.451 278.05v-12.553h9.166v3.006h-5.496v2.086h4.479v2.793h-4.479v4.668zM1402.395 268.503h-3.84v9.547h-3.669v-9.547h-3.859v-3.006h11.368z"></path></g><path d="M1363.273 185.347a.622.622 0 0 0-.45.757l5.992 23.542a.623.623 0 0 0 .757.45l23.542-5.992a.622.622 0 0 0 .448-.757l-5.992-23.541a.622.622 0 0 0-.756-.45zm9.623 1.105 5.997-1.526a1.004 1.004 0 0 1 1.223.726 1.004 1.004 0 0 1-.726 1.223l-5.997 1.527a1.003 1.003 0 0 1-1.224-.726 1.003 1.003 0 0 1 .727-1.224z" fill="#ac9565"></path><g fill="none" stroke="#fff" stroke-miterlimit="10.175"><path d="m1360.968 192.834 5.507 21.561 32.088-8.196" stroke-linejoin="round" stroke-width="2.28293472"></path><path d="m1357.541 200.678 7.684 28.874" stroke-width="3.6523366"></path><path d="M1373.17 237.536c.518 2.899-1.41 5.67-4.31 6.189h0c-2.898.519-5.669-1.41-6.188-4.309h0a5.332 5.332 0 0 1 4.308-6.189h0a5.334 5.334 0 0 1 6.19 4.309z" stroke-linecap="round" stroke-linejoin="round" stroke-width="3.19557018"></path></g><path d="m1355.989 240.869-5.875.87c-.843-5.698-5.224-8.816-8.819-9.43l.94-11.32 13.673-1.897 3.012 11.002c-2.125 2.261-3.91 5.311-2.931 10.775z" fill="#fff" stroke="#fff" stroke-miterlimit="10.175" stroke-width="3.6523366"></path><path d="M1343.136 242.916c.52 2.899-1.41 5.67-4.308 6.188h0c-2.9.52-5.67-1.409-6.19-4.308h0a5.332 5.332 0 0 1 4.31-6.189h0a5.334 5.334 0 0 1 6.188 4.309z" fill="none" stroke="#fff" stroke-linecap="round" stroke-linejoin="round" stroke-miterlimit="10.175" stroke-width="3.19557018"></path><g fill="#fff"><path d="M1321.854 256.2c-1.857 0-3.378 1.521-3.378 3.377s1.521 3.378 3.378 3.378 3.377-1.521 3.377-3.378-1.521-3.377-3.377-3.377zm0 1.546c1.02 0 1.83.811 1.83 1.831s-.81 1.831-1.83 1.831-1.831-.81-1.831-1.83.81-1.832 1.83-1.832z"></path><path d="M1313.956 262.443v-5.753h1.58v2.188l1.75-2.188h1.783l-2.09 2.577 2.236 3.176h-1.815l-1.426-2.115-.438.454v1.66zM1327.311 259.61v2.829h-1.58v-5.753h1.232l2.31 2.925v-2.925h1.58v5.753h-1.257zM1332.955 256.696l1.126 3.768 1.11-3.768h1.662l-2.115 5.753h-1.313l-2.14-5.753zM1341.39 261.079v1.377h-4.1v-5.753h4.027v1.377h-2.448v.81h2.09v1.281h-2.09v.908zM1343.292 256.696l1.029 2.487 1.053-2.487h1.718l-1.985 3.849v1.904h-1.572v-1.92l-1.953-3.833h1.71zM1353.752 262.443v-5.753h2.642c.28 0 .54.06.778.178.237.114.44.265.607.454.173.184.308.397.405.64.098.238.146.478.146.721 0 .335-.073.648-.218.94a1.917 1.917 0 0 1-.608.705l1.215 2.115h-1.782l-1.013-1.767h-.592v1.767zm1.58-3.144h.997c.097 0 .186-.054.267-.162.087-.108.13-.26.13-.454 0-.2-.049-.35-.146-.453-.097-.109-.194-.163-.292-.163h-.956zM1349.928 256.2c-1.856 0-3.378 1.521-3.378 3.377s1.522 3.378 3.378 3.378 3.377-1.521 3.377-3.378-1.521-3.377-3.377-3.377zm0 1.546c1.02 0 1.83.811 1.83 1.831s-.81 1.831-1.83 1.831-1.831-.81-1.831-1.83.81-1.832 1.83-1.832z"></path></g><path d="M1344.933 67.907a.723.723 0 0 0-.669.774l2.06 28.132c.03.4.376.699.775.67l28.132-2.062c.399-.029.696-.375.666-.774l-2.06-28.132a.72.72 0 0 0-.772-.669zm10.776 3.221 7.166-.525a1.165 1.165 0 0 1 1.25 1.08 1.165 1.165 0 0 1-1.08 1.25l-7.165.525a1.166 1.166 0 0 1-1.252-1.08 1.165 1.165 0 0 1 1.08-1.25z" fill="#ac9565"></path><path d="m1354.207 52.992-13.582 14.234 2.203 34.27 37.199-2.661-2.647-34.698-18.613-16.64" fill="none" stroke="#fff" stroke-linecap="round" stroke-linejoin="round" stroke-miterlimit="11.815" stroke-width="3.0780680000000005"></path><g stroke="#fff" stroke-linejoin="round"><path d="m1358.643 40.274-4.817-8.783 5.08-3.489 4.942 3.489-5.205 8.783a5.012 5.012 0 1 1-5.012 5.012" fill="none" stroke-linecap="round" stroke-miterlimit="11.815" stroke-width="3.0780680000000005"></path><path d="M1358.852 29.466c-.537.193-.98.593-1.47.88-.624.435-1.296.819-1.873 1.307-.31.343.089.741.218 1.07.846 1.58 1.677 3.17 2.615 4.695.225.3.677.145.79-.178 1.024-1.712 2.057-3.421 3.038-5.158.135-.473-.416-.653-.696-.903-.79-.562-1.569-1.143-2.385-1.668-.08-.012-.158-.037-.237-.045z" fill="#fff" stroke-miterlimit="3.126" stroke-width="0.193812"></path></g><g fill="#fff"><path d="M1326.807 126.173c0-.766.151-1.521.452-2.264.314-.742.766-1.408 1.355-1.997s1.305-1.067 2.146-1.433 1.8-.547 2.88-.547c1.292 0 2.408.253 3.35.76.953.495 1.661 1.155 2.126 1.98l-2.805 1.874a2.131 2.131 0 0 0-.508-.76c-.2-.2-.426-.36-.678-.478s-.515-.2-.79-.247a4.344 4.344 0 0 0-.772-.07c-.527 0-.985.1-1.374.3-.377.189-.69.442-.941.76a3.34 3.34 0 0 0-.546 1.06c-.112.389-.17.779-.17 1.167 0 .436.07.855.208 1.255s.339.754.603 1.06c.263.307.583.555.96.743a3.11 3.11 0 0 0 1.298.266c.25 0 .509-.024.772-.071.263-.06.515-.147.753-.266.25-.13.47-.288.658-.477.201-.201.358-.442.47-.725l2.993 1.68c-.202.459-.509.872-.923 1.237a5.583 5.583 0 0 1-1.393.92 7.514 7.514 0 0 1-1.675.566c-.59.13-1.167.195-1.731.195-.992 0-1.9-.183-2.729-.548a7.167 7.167 0 0 1-2.126-1.485 6.76 6.76 0 0 1-1.375-2.086 6.127 6.127 0 0 1-.488-2.37zM1340.529 132.56v-12.553h6.136c.652 0 1.254.13 1.806.389a4.364 4.364 0 0 1 1.411.99c.402.4.715.867.941 1.397.226.519.339 1.043.339 1.573a4.256 4.256 0 0 1-1.92 3.59l2.822 4.614h-4.14l-2.352-3.855h-1.374v3.855zm3.67-6.86h2.315c.226 0 .433-.119.621-.354.201-.236.301-.566.301-.99 0-.437-.112-.766-.338-.991-.226-.236-.452-.354-.678-.354h-2.22v2.689zM1356.727 120.008h3.35l4.629 12.553h-3.727l-.808-2.458h-3.558l-.79 2.458h-3.745zm2.86 7.798-1.186-3.89-1.242 3.89zM1369.52 126.386v6.17h-3.67v-12.553h2.86l5.365 6.383v-6.383h3.67v12.553h-2.917zM1389.535 129.555v3.006h-9.523v-12.553h9.354v3.006h-5.684v1.768h4.855v2.793h-4.855v1.98z"></path></g><g fill="#fff"><path d="M1334.75 110.706a3.39 3.39 0 0 0-3.378 3.378c0 1.856 1.521 3.377 3.378 3.377s3.377-1.521 3.377-3.377a3.39 3.39 0 0 0-3.377-3.378zm0 1.547c1.02 0 1.83.81 1.83 1.83s-.81 1.832-1.83 1.832-1.831-.811-1.831-1.831.81-1.831 1.83-1.831z"></path><path d="M1326.832 116.96v-5.753h1.58v2.187l1.75-2.187h1.783l-2.09 2.576 2.235 3.176h-1.815l-1.426-2.114-.437.453v1.661zM1340.187 114.131v2.828h-1.58v-5.753h1.231l2.31 2.925v-2.925h1.58v5.753h-1.256zM1345.83 111.206l1.127 3.768 1.11-3.768h1.66l-2.114 5.753h-1.313l-2.139-5.753zM1354.265 115.583v1.377h-4.1v-5.753h4.027v1.378h-2.447v.81h2.09v1.28h-2.09v.908zM1356.167 111.206l1.03 2.488 1.052-2.488h1.718l-1.985 3.849v1.904h-1.572v-1.92l-1.953-3.833h1.71zM1366.628 116.96v-5.753h2.641c.281 0 .54.059.778.178.238.113.44.264.608.453.173.184.308.398.405.64.097.238.146.478.146.722 0 .335-.073.648-.219.94a1.919 1.919 0 0 1-.608.705l1.216 2.114h-1.783l-1.013-1.766h-.591v1.766zm1.58-3.144h.996c.097 0 .187-.054.268-.162.086-.109.13-.26.13-.454 0-.2-.05-.351-.147-.454-.097-.108-.194-.162-.291-.162h-.956zM1362.824 110.706a3.39 3.39 0 0 0-3.378 3.378c0 1.856 1.521 3.377 3.378 3.377s3.378-1.521 3.378-3.377a3.39 3.39 0 0 0-3.378-3.378zm0 1.547c1.02 0 1.83.81 1.83 1.83s-.81 1.832-1.83 1.832-1.831-.811-1.831-1.831.81-1.831 1.83-1.831z"></path></g><g fill="#fff"><path d="M161.79 348.24h-17.78v-23.798h17.645v4.352h-12.902v5.27h12.307v4.352h-12.307v5.474h13.038v4.35zM176.15 339.86l6 8.38h-5.27l-3.706-5.235-3.638 5.235h-5.133l6.051-8.363-5.898-8.108h5.27l3.553 5.116 3.536-5.116h5.133zM189.98 326.38c0 1.598-1.241 2.822-2.839 2.822s-2.822-1.224-2.822-2.822 1.224-2.855 2.822-2.855 2.839 1.257 2.839 2.855zm-.596 21.86h-4.437v-16.471h4.437zM205.85 336.36c-1.309-.646-3.4-1.326-5.252-1.343-1.683 0-2.533.595-2.533 1.496 0 .952 1.19 1.19 2.686 1.411l1.462.221c3.57.544 5.559 2.142 5.559 4.93 0 3.4-2.788 5.592-7.564 5.592-2.244 0-5.185-.425-7.326-1.938l1.751-3.366c1.411.935 3.127 1.615 5.609 1.615 2.057 0 3.042-.578 3.042-1.547 0-.799-.833-1.241-2.736-1.513l-1.343-.187c-3.808-.527-5.694-2.193-5.694-4.998 0-3.383 2.618-5.389 6.952-5.389 2.635 0 4.692.493 6.884 1.564zM223.11 335.72h-5.966v6.018c0 2.057 1.088 2.805 2.465 2.805 1.054 0 2.193-.527 3.094-1.071l1.632 3.467c-1.445.986-3.111 1.734-5.457 1.734-4.08 0-6.17-2.312-6.17-6.578v-6.375h-3.179v-3.943h3.179v-4.896h4.437v4.896h5.966v3.943zM232.05 326.38c0 1.598-1.241 2.822-2.839 2.822s-2.822-1.224-2.822-2.822 1.224-2.855 2.822-2.855c1.599-.001 2.839 1.257 2.839 2.855zm-.595 21.86h-4.437v-16.471h4.437zM251.68 337.76v10.488h-4.437v-9.06c0-2.38-1.189-3.688-3.212-3.688-1.904 0-3.485 1.241-3.485 3.723v9.026h-4.437v-16.471h4.318v1.938c1.173-1.75 2.975-2.379 4.844-2.379 3.74-.003 6.409 2.598 6.409 6.423zM267.87 333.61v-1.835h4.352v15.111c0 5.287-3.451 8.482-8.89 8.482-2.601 0-5.354-.68-7.208-1.989l1.581-3.621c1.649 1.088 3.468 1.683 5.439 1.683 2.753 0 4.691-1.53 4.691-4.369v-1.156c-1.122 1.376-2.788 2.227-5.065 2.227-4.012 0-7.581-3.349-7.581-8.397 0-5.065 3.569-8.414 7.581-8.414 2.296 0 3.978.884 5.1 2.278zm-8.125 6.136c0 2.38 1.615 4.317 4.148 4.317 2.464 0 4.13-1.87 4.13-4.317 0-2.465-1.666-4.334-4.13-4.334-2.533 0-4.148 1.938-4.148 4.334zM165.97 389.04h-5.065l-2.074-5.541h-10.148l-2.074 5.541h-4.947l9.264-23.798h5.779zm-15.655-9.91h6.884l-3.434-9.195zM185.9 380.8c0 4.946-3.434 8.669-7.972 8.669-2.209 0-3.773-.866-4.844-2.142v8.517h-4.42v-23.271h4.335v1.818c1.071-1.343 2.651-2.261 4.912-2.261 4.555.001 7.989 3.724 7.989 8.67zm-13.038 0c0 2.601 1.717 4.539 4.232 4.539 2.618 0 4.25-2.023 4.25-4.539s-1.632-4.538-4.25-4.538c-2.515 0-4.232 1.938-4.232 4.538zM206.75 380.8c0 4.946-3.434 8.669-7.972 8.669-2.21 0-3.773-.866-4.844-2.142v8.517h-4.42v-23.271h4.334v1.818c1.071-1.343 2.652-2.261 4.913-2.261 4.555.001 7.989 3.724 7.989 8.67zm-13.038 0c0 2.601 1.717 4.539 4.232 4.539 2.618 0 4.25-2.023 4.25-4.539s-1.632-4.538-4.25-4.538c-2.515 0-4.232 1.938-4.232 4.538zM214.81 389.04h-4.437v-24.478h4.437zM224.5 367.18c0 1.598-1.241 2.821-2.839 2.821s-2.822-1.224-2.822-2.821c0-1.598 1.224-2.856 2.822-2.856s2.839 1.258 2.839 2.856zm-.595 21.859h-4.437v-16.471h4.437zM242.91 375.24l-3.196 2.669c-1.003-1.07-2.074-1.648-3.519-1.648-2.295 0-4.13 1.802-4.13 4.538 0 2.754 1.819 4.539 4.113 4.539 1.428 0 2.652-.646 3.587-1.666l3.162 2.702c-1.547 1.989-3.859 3.094-6.612 3.094-5.252 0-8.771-3.671-8.771-8.669 0-4.98 3.519-8.669 8.771-8.669 2.753-.001 5.082 1.121 6.595 3.11zM262 389.04h-4.334v-1.818c-1.071 1.325-2.668 2.243-4.929 2.243-4.539 0-7.972-3.723-7.972-8.669s3.434-8.669 7.972-8.669c2.261 0 3.841.918 4.929 2.261v-1.818H262zm-12.697-8.244c0 2.516 1.648 4.539 4.25 4.539 2.533 0 4.25-1.938 4.25-4.539s-1.717-4.538-4.25-4.538c-2.602 0-4.25 2.023-4.25 4.538zM278.61 376.52h-5.966v6.018c0 2.057 1.088 2.805 2.465 2.805 1.054 0 2.193-.527 3.094-1.071l1.632 3.468c-1.445.986-3.111 1.733-5.457 1.733-4.08 0-6.17-2.312-6.17-6.578v-6.374h-3.179v-3.943h3.179v-4.896h4.437v4.896h5.966v3.942zM287.55 367.18c0 1.598-1.241 2.821-2.839 2.821s-2.822-1.224-2.822-2.821c0-1.598 1.224-2.856 2.822-2.856 1.599 0 2.839 1.258 2.839 2.856zm-.595 21.859h-4.437v-16.471h4.437zM308.41 380.8c0 4.964-3.791 8.669-8.924 8.669-5.116 0-8.89-3.705-8.89-8.669 0-4.963 3.773-8.669 8.89-8.669 5.133 0 8.924 3.706 8.924 8.669zm-13.293 0c0 2.669 1.87 4.539 4.368 4.539 2.499 0 4.386-1.87 4.386-4.539s-1.887-4.538-4.386-4.538c-2.498 0-4.368 1.869-4.368 4.538zM327.6 378.56v10.487h-4.437v-9.06c0-2.38-1.19-3.688-3.213-3.688-1.904 0-3.485 1.24-3.485 3.723v9.025h-4.437v-16.471h4.318v1.938c1.173-1.751 2.975-2.38 4.844-2.38 3.741 0 6.41 2.601 6.41 6.426zM159.88 429.84l-2.567-2.448c-1.734 1.632-3.978 2.873-7.037 2.873-4.691 0-7.479-2.431-7.479-6.323 0-2.788 1.92-4.845 4.113-6.527-1.989-2.04-2.958-3.553-2.958-5.831 0-3.45 2.788-5.966 6.986-5.966 4.13 0 6.935 2.362 6.935 5.881 0 2.567-2.142 4.454-4.471 6.137l3.723 3.604 3.417-4.793 3.349 2.312-3.808 5.354 5.898 5.729h-6.101zm-5.474-5.253-4.572-4.386c-1.326 1.071-2.278 2.159-2.278 3.417 0 1.598 1.224 2.618 3.077 2.618 1.479.001 2.652-.578 3.773-1.649zm-3.858-9.706c1.598-1.122 2.805-2.142 2.805-3.246 0-1.241-.901-2.023-2.414-2.023-1.53 0-2.431.799-2.431 2.176 0 .917.442 1.53 2.04 3.093zM182.21 429.84h-4.743v-23.798h4.743zM202.81 419.36v10.488h-4.437v-9.061c0-2.38-1.19-3.688-3.213-3.688-1.904 0-3.485 1.241-3.485 3.723v9.026h-4.437v-16.472h4.318v1.938c1.173-1.75 2.975-2.379 4.844-2.379 3.741 0 6.41 2.601 6.41 6.425zM217.99 417.32h-5.117v12.528h-4.437V417.32h-3.077v-3.943h3.077v-2.04c0-3.858 2.057-6.391 5.898-6.391 2.244 0 3.808.646 5.065 1.479l-1.768 3.45c-.816-.441-1.785-.799-2.822-.799-1.275 0-1.938.782-1.938 2.312v1.988h5.117v3.944zM232.29 413.29l-.663 4.402c-.731-.322-1.785-.526-2.686-.526-2.057 0-3.468 1.258-3.468 3.705v8.976h-4.437v-16.472h4.301v1.802c1.037-1.547 2.618-2.243 4.641-2.243.952 0 1.7.136 2.312.356zM250.97 429.84h-4.334v-1.819c-1.071 1.326-2.668 2.244-4.929 2.244-4.539 0-7.972-3.723-7.972-8.669 0-4.947 3.434-8.669 7.972-8.669 2.261 0 3.841.917 4.929 2.261v-1.819h4.334zm-12.697-8.244c0 2.516 1.649 4.538 4.25 4.538 2.533 0 4.25-1.938 4.25-4.538s-1.717-4.539-4.25-4.539c-2.602 0-4.25 2.023-4.25 4.539zM267.44 417.96c-1.309-.646-3.4-1.326-5.252-1.343-1.683 0-2.533.595-2.533 1.495 0 .952 1.19 1.19 2.686 1.411l1.462.221c3.57.544 5.559 2.143 5.559 4.93 0 3.399-2.788 5.593-7.564 5.593-2.244 0-5.185-.425-7.326-1.938l1.751-3.366c1.411.935 3.127 1.615 5.609 1.615 2.057 0 3.042-.578 3.042-1.547 0-.799-.833-1.241-2.736-1.513l-1.343-.188c-3.808-.526-5.694-2.192-5.694-4.997 0-3.383 2.618-5.389 6.952-5.389 2.635 0 4.692.493 6.884 1.563zM284.7 417.32h-5.966v6.018c0 2.057 1.088 2.805 2.465 2.805 1.054 0 2.193-.526 3.094-1.07l1.632 3.467c-1.445.986-3.111 1.734-5.457 1.734-4.08 0-6.17-2.312-6.17-6.578v-6.375h-3.179v-3.943h3.179v-4.896h4.437v4.896h5.966v3.942zM299.86 413.29l-.663 4.402c-.73-.322-1.785-.526-2.686-.526-2.057 0-3.468 1.258-3.468 3.705v8.976h-4.437v-16.472h4.301v1.802c1.037-1.547 2.618-2.243 4.641-2.243.953 0 1.701.136 2.312.356zM318.22 422.82c0 5.201-3.672 7.445-7.785 7.445-4.131 0-7.802-2.244-7.802-7.445v-9.451h4.437v9.061c0 2.635 1.445 3.705 3.366 3.705 1.904 0 3.366-1.07 3.366-3.705v-9.061h4.419v9.451zM337.09 416.04l-3.196 2.669c-1.003-1.071-2.074-1.649-3.519-1.649-2.295 0-4.13 1.802-4.13 4.539 0 2.754 1.819 4.538 4.113 4.538 1.428 0 2.652-.646 3.587-1.666l3.162 2.703c-1.547 1.988-3.859 3.094-6.612 3.094-5.252 0-8.771-3.672-8.771-8.669 0-4.98 3.519-8.669 8.771-8.669 2.754 0 5.083 1.121 6.595 3.11zM352.43 417.32h-5.966v6.018c0 2.057 1.088 2.805 2.465 2.805 1.054 0 2.193-.526 3.094-1.07l1.632 3.467c-1.445.986-3.111 1.734-5.457 1.734-4.08 0-6.17-2.312-6.17-6.578v-6.375h-3.179v-3.943h3.179v-4.896h4.437v4.896h5.966v3.942zM371.64 422.82c0 5.201-3.672 7.445-7.785 7.445-4.131 0-7.802-2.244-7.802-7.445v-9.451h4.437v9.061c0 2.635 1.445 3.705 3.366 3.705 1.904 0 3.366-1.07 3.366-3.705v-9.061h4.419v9.451zM387.41 413.29l-.663 4.402c-.731-.322-1.785-.526-2.686-.526-2.057 0-3.468 1.258-3.468 3.705v8.976h-4.437v-16.472h4.301v1.802c1.037-1.547 2.618-2.243 4.641-2.243.952 0 1.7.136 2.312.356zM405.19 421.58c0 .51-.034 1.122-.085 1.496h-11.678c.476 2.38 2.142 3.417 4.232 3.417 1.428 0 2.975-.578 4.165-1.581l2.601 2.855c-1.87 1.717-4.25 2.499-7.021 2.499-5.048 0-8.55-3.434-8.55-8.618s3.399-8.72 8.329-8.72c4.744.001 7.991 3.52 8.007 8.652zm-11.745-1.529h7.292c-.408-2.108-1.683-3.298-3.587-3.298-2.09 0-3.314 1.258-3.705 3.298z"></path></g><g fill="#fff"><path d="M975.61 183.12c6.014 0 9.236 2.845 9.236 7.67 0 4.141-2.881 6.968-7.724 7.437l7.76 10.101h-6.086l-7.346-10.029h-1.477v10.029h-5.023v-25.207h10.66zm-5.635 4.627v6.176h5.546c2.736 0 4.159-1.008 4.159-3.133 0-2.089-1.495-3.043-4.159-3.043zM1004.5 199.58c0 .54-.036 1.188-.09 1.585h-12.369c.504 2.521 2.269 3.619 4.483 3.619 1.512 0 3.15-.612 4.411-1.675l2.754 3.025c-1.979 1.818-4.501 2.646-7.436 2.646-5.348 0-9.057-3.637-9.057-9.129 0-5.491 3.601-9.236 8.822-9.236 5.025.001 8.464 3.728 8.482 9.165zm-12.441-1.62h7.725c-.433-2.232-1.783-3.493-3.8-3.493-2.214 0-3.511 1.333-3.925 3.493zM1013 192.76c1.242-1.729 3.097-2.341 5.006-2.341 3.961 0 6.788 2.755 6.788 6.806v11.109h-4.7v-9.597c0-2.521-1.26-3.907-3.402-3.907-2.017 0-3.691 1.314-3.691 3.943v9.561h-4.699v-25.945h4.699v10.371zM1047.4 199.6c0 5.258-4.015 9.183-9.453 9.183-5.419 0-9.416-3.925-9.416-9.183s3.997-9.183 9.416-9.183c5.438 0 9.453 3.925 9.453 9.183zm-14.08 0c0 2.826 1.98 4.808 4.627 4.808s4.646-1.981 4.646-4.808-1.998-4.808-4.646-4.808c-2.647 0-4.627 1.981-4.627 4.808zM1063.6 195.74c-1.387-.684-3.602-1.404-5.563-1.422-1.782 0-2.683.63-2.683 1.584 0 1.009 1.26 1.261 2.845 1.494l1.548.234c3.781.576 5.888 2.269 5.888 5.222 0 3.601-2.952 5.924-8.012 5.924-2.377 0-5.492-.45-7.761-2.053l1.854-3.565c1.495.99 3.313 1.711 5.942 1.711 2.179 0 3.223-.612 3.223-1.639 0-.846-.883-1.314-2.898-1.603l-1.423-.198c-4.033-.558-6.032-2.322-6.032-5.293 0-3.583 2.773-5.708 7.364-5.708 2.791 0 4.97.522 7.292 1.656zM1081.9 195.06h-6.319v6.373c0 2.179 1.152 2.972 2.61 2.972 1.117 0 2.323-.559 3.277-1.135l1.729 3.673c-1.53 1.045-3.295 1.837-5.779 1.837-4.321 0-6.536-2.449-6.536-6.968v-6.752h-3.367v-4.178h3.367v-5.186h4.699v5.186h6.319z"></path></g><g fill="#fff"><path d="M969.26 329.03c6.014 0 9.236 2.845 9.236 7.67 0 4.141-2.881 6.968-7.724 7.437l7.76 10.101h-6.086l-7.346-10.029h-1.477v10.029H958.6v-25.207h10.66zm-5.636 4.626v6.176h5.546c2.736 0 4.159-1.008 4.159-3.133 0-2.089-1.495-3.043-4.159-3.043zM998.16 345.49c0 .54-.036 1.188-.09 1.585h-12.369c.504 2.521 2.269 3.619 4.483 3.619 1.512 0 3.15-.612 4.411-1.675l2.754 3.025c-1.979 1.818-4.501 2.646-7.436 2.646-5.348 0-9.057-3.637-9.057-9.129 0-5.491 3.601-9.236 8.822-9.236 5.025.001 8.465 3.727 8.482 9.165zm-12.441-1.621h7.725c-.433-2.232-1.783-3.493-3.8-3.493-2.214 0-3.511 1.333-3.925 3.493zM1020.2 345.51c0 5.239-3.638 9.183-8.445 9.183-2.34 0-3.997-.918-5.131-2.269v9.021h-4.682v-24.649h4.592v1.927c1.134-1.423 2.809-2.395 5.203-2.395 4.826 0 8.463 3.942 8.463 9.182zm-13.81 0c0 2.755 1.818 4.808 4.483 4.808 2.772 0 4.501-2.143 4.501-4.808s-1.729-4.808-4.501-4.808c-2.665.001-4.483 2.053-4.483 4.808zM1028.8 354.24h-4.699v-25.928h4.699zM1050.9 354.24h-4.591v-1.927c-1.135 1.404-2.827 2.377-5.222 2.377-4.808 0-8.444-3.943-8.444-9.183s3.637-9.183 8.444-9.183c2.395 0 4.069.972 5.222 2.395v-1.927h4.591zm-13.449-8.733c0 2.665 1.746 4.808 4.501 4.808 2.683 0 4.501-2.053 4.501-4.808s-1.818-4.808-4.501-4.808c-2.755.001-4.501 2.143-4.501 4.808zM1068.5 340.97h-6.319v6.373c0 2.179 1.152 2.972 2.61 2.972 1.117 0 2.323-.559 3.277-1.135l1.729 3.673c-1.53 1.045-3.295 1.837-5.779 1.837-4.321 0-6.536-2.449-6.536-6.968v-6.752h-3.367v-4.178h3.367v-5.186h4.699v5.186h6.319zM1084 340.97h-5.42v13.27h-4.699v-13.27h-3.259v-4.178h3.259v-2.16c0-4.088 2.179-6.771 6.248-6.771 2.377 0 4.033.685 5.365 1.566l-1.872 3.655c-.864-.468-1.891-.847-2.989-.847-1.351 0-2.053.829-2.053 2.449v2.106h5.42zM1104.8 345.51c0 5.258-4.015 9.183-9.452 9.183-5.42 0-9.417-3.925-9.417-9.183s3.997-9.183 9.417-9.183c5.437.001 9.452 3.925 9.452 9.183zm-14.08 0c0 2.826 1.98 4.808 4.628 4.808 2.646 0 4.645-1.981 4.645-4.808s-1.998-4.808-4.645-4.808c-2.648.001-4.628 1.981-4.628 4.808zM1120.5 336.7l-.703 4.663c-.773-.342-1.89-.558-2.845-.558-2.179 0-3.673 1.332-3.673 3.925v9.507h-4.699V336.79h4.556v1.908c1.098-1.638 2.772-2.376 4.915-2.376 1.009.001 1.801.144 2.449.378zM1152 343.13v11.109h-4.682v-9.597c0-2.521-1.278-3.907-3.403-3.907-2.017 0-3.69 1.314-3.69 3.943v9.561h-4.699v-9.597c0-2.521-1.261-3.907-3.403-3.907-2.017 0-3.691 1.314-3.691 3.943v9.561h-4.699v-17.447h4.573v2.053c1.242-1.854 3.151-2.521 5.132-2.521 2.521 0 4.591 1.134 5.762 2.988 1.351-2.214 3.637-2.988 5.924-2.988 4.102.001 6.876 2.755 6.876 6.806z"></path></g><g fill="#fff"><path d="M973.45 474.94c6.014 0 9.236 2.845 9.236 7.67 0 4.141-2.881 6.968-7.724 7.437l7.76 10.101h-6.086l-7.346-10.029h-1.477v10.029h-5.023v-25.207h10.66zm-5.636 4.627v6.176h5.546c2.736 0 4.159-1.008 4.159-3.133 0-2.089-1.495-3.043-4.159-3.043zM1002.3 491.4c0 .54-.036 1.188-.09 1.585h-12.369c.504 2.521 2.269 3.619 4.483 3.619 1.512 0 3.15-.612 4.411-1.675l2.754 3.025c-1.979 1.818-4.501 2.646-7.436 2.646-5.348 0-9.057-3.637-9.057-9.129 0-5.491 3.601-9.236 8.822-9.236 5.025.001 8.464 3.727 8.482 9.165zm-12.442-1.62h7.725c-.433-2.232-1.783-3.493-3.8-3.493-2.214-.001-3.51 1.332-3.925 3.493zM1017.6 486.88h-5.42v13.27h-4.699v-13.27h-3.259v-4.178h3.259v-2.16c0-4.088 2.179-6.771 6.248-6.771 2.377 0 4.033.685 5.365 1.566l-1.872 3.655c-.864-.468-1.891-.847-2.989-.847-1.351 0-2.053.829-2.053 2.449v2.106h5.42zM1037.8 500.15h-4.591v-1.927c-1.135 1.404-2.827 2.377-5.222 2.377-4.808 0-8.444-3.943-8.444-9.183s3.637-9.183 8.444-9.183c2.395 0 4.069.972 5.222 2.395v-1.927h4.591zm-13.449-8.733c0 2.665 1.746 4.808 4.501 4.808 2.683 0 4.501-2.053 4.501-4.808s-1.818-4.808-4.501-4.808c-2.755.001-4.501 2.143-4.501 4.808zM1057.9 485.53l-3.385 2.826c-1.062-1.134-2.196-1.746-3.728-1.746-2.431 0-4.375 1.908-4.375 4.808 0 2.917 1.927 4.808 4.357 4.808 1.513 0 2.809-.685 3.799-1.765l3.35 2.862c-1.639 2.106-4.088 3.277-7.005 3.277-5.563 0-9.29-3.89-9.29-9.183 0-5.275 3.727-9.183 9.29-9.183 2.918.001 5.385 1.189 6.987 3.296zM1074.1 486.88h-6.32v6.373c0 2.179 1.152 2.972 2.61 2.972 1.116 0 2.323-.559 3.277-1.135l1.729 3.673c-1.53 1.045-3.295 1.837-5.779 1.837-4.321 0-6.536-2.449-6.536-6.968v-6.752h-3.367v-4.178h3.367v-5.186h4.699v5.186h6.32zM1095.9 491.42c0 5.258-4.015 9.183-9.452 9.183-5.42 0-9.417-3.925-9.417-9.183s3.997-9.183 9.417-9.183c5.437.001 9.452 3.925 9.452 9.183zm-14.08 0c0 2.826 1.98 4.808 4.628 4.808 2.646 0 4.645-1.981 4.645-4.808s-1.998-4.808-4.645-4.808c-2.648.001-4.628 1.981-4.628 4.808zM1111.6 482.62l-.703 4.663c-.773-.342-1.89-.558-2.845-.558-2.179 0-3.673 1.332-3.673 3.925v9.507h-4.699V482.71h4.556v1.908c1.098-1.638 2.772-2.376 4.915-2.376 1.008 0 1.8.143 2.449.378z"></path></g><g fill="#fff"><path d="M1378.8 681.08H793.64c.018.719.055 1.434.055 2.158 0 .618-.033 1.227-.047 1.842h585.16l2.148-1.996zM623.62 683.24c0-.724.037-1.439.055-2.158H38.515l-2.156 2.004 2.148 1.996h585.16c-.013-.614-.047-1.224-.047-1.842z"></path><path d="m50.812 669.66-2.729-2.93-17.592 16.36 17.592 16.35 2.729-2.92-12.3-11.44H34.83v-4h3.691z"></path><path d="M34.83 685.08h3.682l-2.147-1.99 2.156-2.01H34.83zM1378.8 681.08h3.7v4h-3.7l-12.3 11.44 2.7 2.92 17.6-16.35-17.6-16.36-2.7 2.93z"></path><path d="m1381 683.09-2.2 1.99h3.7v-4h-3.7z"></path></g><g fill="#ac9565"><path d="M745.89 671.529a1.556 1.556 0 1 1-3.113-.001 1.556 1.556 0 0 1 3.113 0zM676.07 671.529a1.556 1.556 0 1 1-3.113-.001 1.556 1.556 0 0 1 3.113 0z"></path></g><g fill="#ac9565"><path d="M744.646 662.087a1.556 1.556 0 1 1-3.007.805 1.556 1.556 0 0 1 3.007-.805zM677.205 680.158a1.556 1.556 0 1 1-3.007.805 1.556 1.556 0 0 1 3.007-.805z"></path></g><g fill="#ac9565"><path d="M741.003 653.297a1.556 1.556 0 1 1-2.696 1.555 1.556 1.556 0 0 1 2.696-1.555zM680.537 688.207a1.556 1.556 0 1 1-2.696 1.555 1.556 1.556 0 0 1 2.696-1.555z"></path></g><g fill="#ac9565"><path d="M735.205 645.746a1.556 1.556 0 1 1-2.201 2.2 1.556 1.556 0 0 1 2.201-2.2zM685.837 695.114a1.556 1.556 0 1 1-2.201 2.2 1.556 1.556 0 0 1 2.201-2.2z"></path></g><path d="M727.653 639.953a1.556 1.556 0 1 1-1.557 2.696 1.556 1.556 0 0 1 1.557-2.696zM718.856 636.31a1.556 1.556 0 1 1-.807 3.006 1.556 1.556 0 0 1 .807-3.006zM709.419 635.07a1.556 1.556 0 1 1 0 3.113 1.556 1.556 0 0 1 0-3.113zM699.981 636.31a1.556 1.556 0 1 1 .805 3.007 1.556 1.556 0 0 1-.805-3.007zM691.189 639.958a1.556 1.556 0 1 1 1.555 2.696 1.556 1.556 0 0 1-1.555-2.696z" fill="#ac9565"></path><g fill="#ac9565"><path d="M683.641 645.75a1.556 1.556 0 1 1 2.2 2.201 1.556 1.556 0 0 1-2.2-2.201zM733.004 695.113a1.556 1.556 0 1 1 2.2 2.201 1.556 1.556 0 0 1-2.2-2.201z"></path></g><g fill="#ac9565"><path d="M677.848 653.3a1.556 1.556 0 1 1 2.696 1.557 1.556 1.556 0 0 1-2.696-1.557zM738.306 688.205a1.556 1.556 0 1 1 2.695 1.557 1.556 1.556 0 0 1-2.695-1.557z"></path></g><g fill="#ac9565"><path d="M674.202 662.092a1.556 1.556 0 1 1 3.007.807 1.556 1.556 0 0 1-3.007-.807zM741.643 680.163a1.556 1.556 0 1 1 3.007.806 1.556 1.556 0 0 1-3.007-.806z"></path></g><path d="m731.654 649.055-22.595 22.596 3.964 3.965 18.632-18.632z" fill="#ac9565"></path><path d="M731.654 649.055h-7.928l-18.631 18.632 3.964 3.964z" fill="#fff"></path><path d="m686.463 694.247 22.596-22.596-3.965-3.965-18.632 18.632z" fill="#ac9565"></path><path d="M686.463 694.247h7.928l18.632-18.632-3.964-3.964z" fill="#fff"></path><g fill="#fff"><path d="M666.241 731.263V718.71h5.76c.651 0 1.254.13 1.806.389a4.376 4.376 0 0 1 1.411.99c.401.4.715.866.941 1.396.226.519.338 1.043.338 1.573 0 .555-.106 1.096-.32 1.626a4.546 4.546 0 0 1-.903 1.397 4.28 4.28 0 0 1-1.393.972 4.423 4.423 0 0 1-1.788.354h-2.182v3.855h-3.67zm3.67-6.86h1.939c.226 0 .432-.094.62-.283.202-.2.302-.554.302-1.06 0-.518-.112-.872-.338-1.06-.226-.19-.452-.283-.678-.283h-1.845zM687.494 728.258v3.006h-9.522V718.71h9.353v3.006h-5.684v1.768h4.856v2.793h-4.856v1.98zM689.207 731.263V718.71h3.67v9.547h6.06v3.006zM706.065 731.37c-1.016 0-1.939-.183-2.766-.548a6.917 6.917 0 0 1-2.126-1.433 6.606 6.606 0 0 1-1.375-2.05 5.99 5.99 0 0 1-.489-2.37c0-.824.17-1.62.508-2.387a6.273 6.273 0 0 1 1.411-2.015 6.898 6.898 0 0 1 2.165-1.396c.84-.354 1.757-.53 2.747-.53 1.016 0 1.939.183 2.766.547a6.761 6.761 0 0 1 2.127 1.45c.59.6 1.04 1.285 1.354 2.05a5.95 5.95 0 0 1 .49 2.352c0 .825-.17 1.62-.508 2.387a6.564 6.564 0 0 1-1.412 2.016 7.026 7.026 0 0 1-2.164 1.397c-.827.353-1.737.53-2.728.53zm-3.03-6.366c0 .425.063.837.188 1.238.125.389.313.737.564 1.043s.564.554.94.742c.39.19.848.283 1.375.283s.985-.094 1.374-.283c.39-.2.703-.453.941-.76.25-.317.432-.677.546-1.078a4.05 4.05 0 0 0 0-2.44c-.126-.401-.32-.749-.583-1.044a2.623 2.623 0 0 0-.96-.725c-.376-.189-.822-.283-1.335-.283-.528 0-.986.094-1.375.283-.376.19-.69.442-.94.76-.251.306-.44.66-.565 1.06-.113.391-.17.791-.17 1.204zM714.442 731.263V718.71h6.136c.652 0 1.254.13 1.806.389a4.376 4.376 0 0 1 1.412.99c.401.4.715.866.94 1.396.227.519.339 1.043.339 1.573 0 .73-.17 1.414-.508 2.051a4.256 4.256 0 0 1-1.41 1.538l2.822 4.615h-4.14l-2.353-3.855h-1.374v3.855h-3.67zm3.671-6.86h2.315c.226 0 .434-.118.621-.353.202-.236.302-.566.302-.99 0-.436-.113-.766-.339-.99-.226-.236-.452-.354-.678-.354h-2.22v2.687zM732.868 728.306c.428 0 .79-.088 1.092-.265s.546-.407.734-.69c.187-.294.326-.63.413-1.007s.132-.773.132-1.185v-6.453h3.67v6.453c0 .873-.12 1.692-.358 2.458-.238.754-.609 1.409-1.11 1.963s-1.135.99-1.9 1.309c-.754.317-1.644.476-2.673.476-1.066 0-1.981-.164-2.747-.495-.753-.342-1.374-.796-1.863-1.362s-.847-1.22-1.073-1.962a8.274 8.274 0 0 1-.339-2.388v-6.453h3.67v6.453c0 .413.045.814.132 1.202.088.377.226.714.414 1.008.188.283.426.513.715.69.3.166.664.248 1.091.248zM749.107 722.811c-.376-.212-.765-.4-1.166-.566a9.52 9.52 0 0 0-1.149-.389 4.073 4.073 0 0 0-1.223-.195c-.326 0-.59.048-.79.142-.188.094-.283.253-.283.477 0 .165.056.3.169.407s.276.206.489.3c.214.083.47.165.772.248.313.082.664.182 1.053.3.615.176 1.167.371 1.656.583.501.213.928.466 1.28.76.351.283.62.631.808 1.043.188.413.283.913.282 1.503 0 .754-.15 1.39-.452 1.909a3.415 3.415 0 0 1-1.167 1.22 5.13 5.13 0 0 1-1.637.672 8.64 8.64 0 0 1-1.825.195c-.49 0-.992-.035-1.506-.106-.514-.07-1.028-.17-1.543-.3-.501-.13-.992-.283-1.468-.46a9.83 9.83 0 0 1-1.3-.6l1.581-3.024c.44.26.898.49 1.375.69.401.176.853.336 1.354.476a5.864 5.864 0 0 0 1.562.212c.402 0 .678-.047.829-.141.163-.106.244-.241.244-.406 0-.177-.081-.324-.244-.442-.15-.13-.364-.241-.64-.336a13.557 13.557 0 0 0-.96-.283 22.832 22.832 0 0 1-1.128-.337 10.968 10.968 0 0 1-1.525-.6 4.446 4.446 0 0 1-1.054-.743 2.828 2.828 0 0 1-.621-.955 3.63 3.63 0 0 1-.188-1.22c0-.695.132-1.309.395-1.839.277-.53.646-.972 1.11-1.326s.992-.618 1.58-.795a6.312 6.312 0 0 1 1.901-.283c.49 0 .966.047 1.43.141.464.082.91.195 1.336.336.44.13.847.278 1.224.442.376.154.715.3 1.016.442z"></path></g><g fill="#fff"><path d="M674.158 709.397c-1.856 0-3.378 1.522-3.378 3.378s1.522 3.378 3.378 3.378 3.378-1.522 3.378-3.378-1.522-3.378-3.378-3.378zm0 1.547c1.02 0 1.83.81 1.83 1.831s-.81 1.83-1.83 1.83-1.831-.81-1.831-1.83.81-1.83 1.83-1.83z"></path><path d="M666.26 715.64v-5.752h1.58v2.188l1.75-2.188h1.784l-2.091 2.577 2.236 3.176h-1.815l-1.426-2.115-.437.454v1.661h-1.58zM679.616 712.809v2.827h-1.58v-5.753h1.231l2.31 2.926v-2.926h1.58v5.753H681.9zM685.26 709.894l1.126 3.767 1.11-3.767h1.66l-2.114 5.753h-1.313l-2.139-5.753zM693.694 714.276v1.378h-4.1V709.9h4.027v1.377h-2.447v.81h2.09v1.28h-2.09v.908zM695.596 709.894l1.029 2.487 1.053-2.487h1.718l-1.985 3.848v1.905h-1.572v-1.92l-1.953-3.833zM706.057 715.64v-5.752h2.64c.282 0 .541.06.779.178.238.114.44.265.608.454.172.183.308.397.405.64.097.238.146.478.146.72 0 .336-.073.65-.219.94a1.919 1.919 0 0 1-.607.706l1.215 2.115h-1.783l-1.013-1.767h-.591v1.767zm1.58-3.143h.996c.097 0 .186-.054.268-.162.086-.108.13-.26.13-.454 0-.2-.05-.351-.147-.454-.097-.108-.194-.162-.291-.162h-.956zM702.253 709.397c-1.857 0-3.378 1.522-3.378 3.378s1.521 3.378 3.378 3.378c1.856 0 3.377-1.522 3.377-3.378s-1.521-3.378-3.377-3.378zm0 1.547c1.02 0 1.83.81 1.83 1.831s-.81 1.83-1.83 1.83-1.831-.81-1.831-1.83.81-1.83 1.83-1.83z"></path></g><g fill="#fff"><path d="M675.25 445.98h-5.366l-2.197-5.87h-10.749l-2.197 5.87h-5.24l9.813-25.207h6.122zm-16.583-10.497h7.292l-3.637-9.741zM690.55 433.39c-1.386-.684-3.601-1.404-5.563-1.422-1.783 0-2.683.63-2.683 1.584 0 1.009 1.261 1.261 2.845 1.494l1.549.234c3.781.576 5.888 2.269 5.888 5.222 0 3.601-2.953 5.924-8.013 5.924-2.376 0-5.491-.45-7.76-2.053l1.855-3.565c1.494.99 3.312 1.711 5.941 1.711 2.179 0 3.223-.612 3.223-1.639 0-.846-.882-1.314-2.899-1.603l-1.422-.198c-4.033-.558-6.032-2.322-6.032-5.293 0-3.583 2.772-5.708 7.364-5.708 2.791 0 4.969.522 7.292 1.656zM708.68 433.39c-1.386-.684-3.601-1.404-5.563-1.422-1.783 0-2.683.63-2.683 1.584 0 1.009 1.261 1.261 2.845 1.494l1.549.234c3.781.576 5.887 2.269 5.887 5.222 0 3.601-2.953 5.924-8.012 5.924-2.376 0-5.491-.45-7.76-2.053l1.855-3.565c1.494.99 3.312 1.711 5.941 1.711 2.179 0 3.223-.612 3.223-1.639 0-.846-.882-1.314-2.899-1.603l-1.422-.198c-4.033-.558-6.032-2.322-6.032-5.293 0-3.583 2.772-5.708 7.364-5.708 2.791 0 4.969.522 7.292 1.656zM730.58 437.23c0 .54-.036 1.188-.09 1.585h-12.369c.504 2.521 2.269 3.619 4.483 3.619 1.512 0 3.15-.612 4.411-1.675l2.755 3.025c-1.98 1.818-4.502 2.646-7.437 2.646-5.348 0-9.057-3.637-9.057-9.129 0-5.491 3.601-9.236 8.822-9.236 5.025.001 8.465 3.727 8.482 9.165zm-12.441-1.62h7.725c-.433-2.232-1.783-3.493-3.8-3.493-2.214 0-3.511 1.333-3.925 3.493zM746.8 433.39c-1.386-.684-3.601-1.404-5.563-1.422-1.782 0-2.683.63-2.683 1.584 0 1.009 1.26 1.261 2.845 1.494l1.549.234c3.78.576 5.888 2.269 5.888 5.222 0 3.601-2.953 5.924-8.013 5.924-2.377 0-5.491-.45-7.761-2.053l1.854-3.565c1.495.99 3.313 1.711 5.942 1.711 2.179 0 3.223-.612 3.223-1.639 0-.846-.882-1.314-2.898-1.603l-1.423-.198c-4.033-.558-6.031-2.322-6.031-5.293 0-3.583 2.772-5.708 7.364-5.708 2.79 0 4.969.522 7.292 1.656zM764.92 433.39c-1.387-.684-3.602-1.404-5.563-1.422-1.782 0-2.683.63-2.683 1.584 0 1.009 1.26 1.261 2.845 1.494l1.548.234c3.781.576 5.888 2.269 5.888 5.222 0 3.601-2.952 5.924-8.012 5.924-2.377 0-5.492-.45-7.761-2.053l1.854-3.565c1.495.99 3.313 1.711 5.942 1.711 2.179 0 3.223-.612 3.223-1.639 0-.846-.883-1.314-2.898-1.603l-1.423-.198c-4.033-.558-6.032-2.322-6.032-5.293 0-3.583 2.773-5.708 7.364-5.708 2.791 0 4.97.522 7.292 1.656z"></path></g><g fill="#fff"><path d="M684.986 385.21h-3.839v9.548h-3.67v-9.547h-3.858v-3.006h11.367zM688.556 382.206h3.35l4.63 12.553h-3.727l-.81-2.458h-3.556l-.79 2.458h-3.746zm2.86 7.798-1.186-3.89-1.242 3.89zM696.366 388.37c0-.765.15-1.52.452-2.263a6.244 6.244 0 0 1 1.354-1.997c.59-.59 1.306-1.067 2.145-1.433s1.8-.547 2.88-.547c1.293 0 2.409.253 3.35.76.953.495 1.662 1.155 2.126 1.98l-2.804 1.874a2.143 2.143 0 0 0-.508-.76c-.2-.2-.427-.36-.677-.477s-.515-.201-.79-.248a4.344 4.344 0 0 0-.772-.07c-.528 0-.986.1-1.375.3-.376.19-.69.442-.94.76a3.34 3.34 0 0 0-.546 1.06c-.113.389-.17.779-.17 1.167 0 .436.07.855.208 1.255s.338.754.602 1.06c.263.307.583.555.96.743a3.11 3.11 0 0 0 1.299.266c.25 0 .507-.024.771-.071.264-.06.515-.147.754-.266.25-.13.47-.288.658-.477.201-.201.358-.442.47-.725l2.992 1.68c-.201.459-.507.872-.922 1.237a5.583 5.583 0 0 1-1.393.92 7.523 7.523 0 0 1-1.674.566c-.59.13-1.167.195-1.732.195-.991 0-1.9-.184-2.728-.548a7.18 7.18 0 0 1-2.127-1.485 6.76 6.76 0 0 1-1.374-2.086 6.087 6.087 0 0 1-.489-2.37zM710.108 394.758v-12.553h3.67v4.774l4.065-4.774h4.14l-4.855 5.623 5.195 6.93h-4.216l-3.312-4.614-1.016.99v3.625h-3.67zM723.087 394.758v-12.553h3.67v9.547h6.06v3.006zM743.628 391.753v3.006h-9.522v-12.553h9.353v3.006h-5.684v1.768h4.855v2.793h-4.855v1.98z"></path></g><g fill="#ac9565"><path d="m717.436 292.667 3.318 1.916v26.1l-3.318-1.917zM699.236 292.667l-3.319 1.916v27.268l3.319-1.916zM708.431 337.29a4.856 4.856 0 0 0-4.853 4.677l-.002 8.354c0 .904.172 1.288.737 1.852l5.596 5.598c1.25 1.345 1.306 3.541-.088 4.761-1.4 1.226-3.436 1.34-4.78.07-.008-.006-2.362-2.365-4.001-4.008-.517-.516-1.56-.258-1.56.838 0 1.247 1.376 1.167 1.376 1.75 0 4.252 3.323 7.265 7.575 7.265a7.7 7.7 0 0 0 4.837-13.69c0-5.07.019-12.72.019-12.753a4.859 4.859 0 0 0-4.856-4.714z"></path></g><path d="M723.463 319.245c.001-8.304-6.73-15.036-15.034-15.037h-.001c-8.304 0-15.035 6.732-15.035 15.036 0 1.494.223 2.978.66 4.406l-.05.017 7.051 21.182a7.518 7.518 0 0 0 14.654.405l7.189-21.586-.091-.03c.436-1.425.656-2.906.657-4.393zm-12.935 25.38c-.133.127-2.794.764-2.97.712s-2.057-2.038-2.1-2.216.737-2.8.87-2.927c.133-.126 2.793-.763 2.968-.712.176.052 2.058 2.038 2.1 2.216s-.735 2.801-.868 2.927zm2.1-20.95c-.265.253-5.587 1.527-5.938 1.423s-4.115-4.076-4.2-4.432 1.47-5.602 1.737-5.854 5.587-1.527 5.938-1.422 4.116 4.076 4.2 4.431c.086.357-1.47 5.603-1.736 5.854z" fill="#fff"></path><g fill="#fff"><path d="M681.533 372.894c-1.856 0-3.378 1.522-3.378 3.378s1.522 3.378 3.378 3.378 3.378-1.522 3.378-3.378-1.521-3.378-3.378-3.378zm0 1.547c1.02 0 1.831.81 1.831 1.831s-.81 1.831-1.83 1.831-1.832-.81-1.832-1.83.81-1.832 1.831-1.832z"></path><path d="M673.636 379.158v-5.753h1.58v2.188l1.75-2.188h1.783l-2.09 2.577 2.236 3.176h-1.815l-1.426-2.114-.438.453v1.661zM686.991 376.326v2.828h-1.58v-5.753h1.232l2.31 2.925v-2.925h1.58v5.753h-1.257zM692.635 373.39l1.126 3.768 1.11-3.767h1.661l-2.115 5.752h-1.312l-2.14-5.752zM701.07 377.773v1.378h-4.1v-5.753h4.026v1.377h-2.447v.81h2.09v1.28h-2.09v.908zM702.971 373.39l1.03 2.488 1.053-2.487h1.718l-1.986 3.848v1.905h-1.572v-1.92l-1.952-3.833h1.71zM713.432 379.158v-5.753h2.641c.281 0 .54.06.778.179.238.113.44.264.608.453.173.184.308.398.405.64.098.238.146.478.146.722 0 .334-.073.648-.218.94a1.917 1.917 0 0 1-.608.705l1.215 2.114h-1.782l-1.013-1.766h-.591v1.766zm1.58-3.143h.997c.097 0 .186-.054.267-.162.086-.109.13-.26.13-.454 0-.2-.049-.351-.146-.454-.097-.108-.195-.162-.292-.162h-.956zM709.628 372.894c-1.856 0-3.378 1.522-3.378 3.378s1.522 3.378 3.378 3.378 3.378-1.522 3.378-3.378-1.522-3.378-3.378-3.378zm0 1.547c1.02 0 1.831.81 1.831 1.831s-.81 1.831-1.83 1.831-1.832-.81-1.832-1.83.81-1.832 1.831-1.832z"></path></g><g fill="#fff"><circle cx="1281.5" cy="228.3" r="11.108"></circle><circle cx="1281.5" cy="83.294" r="11.108"></circle><circle cx="1281.5" cy="374.45" r="11.108"></circle><circle cx="1281.5" cy="519.4" r="11.108"></circle></g></g></svg>